<mxfile host="app.diagrams.net" modified="2023-06-29T18:50:15.691Z" agent="Mozilla/5.0 (Windows NT 10.0; Win64; x64) AppleWebKit/537.36 (KHTML, like Gecko) Chrome/114.0.0.0 Safari/537.36" etag="hFdwRKajpcYyUT1trIkZ" version="21.5.2" type="google">
  <diagram name="PÃ¡gina-1" id="6_TzJqCMUs0hPj9omvHc">
    <mxGraphModel grid="1" page="1" gridSize="10" guides="1" tooltips="1" connect="1" arrows="1" fold="1" pageScale="1" pageWidth="827" pageHeight="1169" math="0" shadow="0">
      <root>
        <mxCell id="0" />
        <mxCell id="1" parent="0" />
        <mxCell id="9qOrJQhXBylwTHdZU7yv-4" value="" style="swimlane;startSize=0;fillColor=#FFFFFF;strokeColor=#009900;" vertex="1" parent="1">
          <mxGeometry x="50" y="60" width="200" height="200" as="geometry" />
        </mxCell>
        <mxCell id="9qOrJQhXBylwTHdZU7yv-5" value="&lt;font style=&quot;font-size: 18px;&quot;&gt;Inmuebles&amp;nbsp;&lt;/font&gt;" style="text;html=1;align=center;verticalAlign=middle;resizable=0;points=[];autosize=1;strokeColor=#009900;fillColor=#FFFFFF;" vertex="1" parent="9qOrJQhXBylwTHdZU7yv-4">
          <mxGeometry x="45" y="80" width="110" height="40" as="geometry" />
        </mxCell>
        <mxCell id="9qOrJQhXBylwTHdZU7yv-8" value="Edificacion" style="rounded=0;whiteSpace=wrap;html=1;fillColor=#FFFFFF;strokeColor=#009900;" vertex="1" parent="1">
          <mxGeometry x="410" y="60" width="120" height="60" as="geometry" />
        </mxCell>
        <mxCell id="9qOrJQhXBylwTHdZU7yv-9" value="Terrenos&amp;nbsp;" style="rounded=0;whiteSpace=wrap;html=1;fillColor=#FFFFFF;strokeColor=#009900;" vertex="1" parent="1">
          <mxGeometry x="410" y="140" width="120" height="60" as="geometry" />
        </mxCell>
        <mxCell id="9qOrJQhXBylwTHdZU7yv-11" value="Casas" style="rounded=0;whiteSpace=wrap;html=1;fillColor=#FFFFFF;strokeColor=#009900;" vertex="1" parent="1">
          <mxGeometry x="410" y="220" width="120" height="60" as="geometry" />
        </mxCell>
        <mxCell id="9qOrJQhXBylwTHdZU7yv-14" value="1" style="endArrow=open;html=1;endSize=12;startArrow=diamondThin;startSize=14;startFill=1;edgeStyle=orthogonalEdgeStyle;align=left;verticalAlign=bottom;rounded=0;exitX=0.41;exitY=-0.02;exitDx=0;exitDy=0;exitPerimeter=0;fillColor=#00FF00;strokeColor=#006600;" edge="1" parent="1" source="9qOrJQhXBylwTHdZU7yv-4">
          <mxGeometry x="-0.9692" y="22" relative="1" as="geometry">
            <mxPoint x="220" y="50" as="sourcePoint" />
            <mxPoint x="470" y="56" as="targetPoint" />
            <Array as="points">
              <mxPoint x="132" y="40" />
              <mxPoint x="315" y="40" />
              <mxPoint x="315" y="30" />
              <mxPoint x="470" y="30" />
            </Array>
            <mxPoint as="offset" />
          </mxGeometry>
        </mxCell>
        <mxCell id="9qOrJQhXBylwTHdZU7yv-17" value="2" style="text;whiteSpace=wrap;html=1;" vertex="1" parent="1">
          <mxGeometry x="470" width="40" height="40" as="geometry" />
        </mxCell>
        <mxCell id="9qOrJQhXBylwTHdZU7yv-20" value="1" style="endArrow=open;html=1;endSize=12;startArrow=diamondThin;startSize=14;startFill=1;edgeStyle=orthogonalEdgeStyle;align=left;verticalAlign=bottom;rounded=0;exitX=1;exitY=0.5;exitDx=0;exitDy=0;fillColor=#00FF00;strokeColor=#006600;entryX=-0.033;entryY=0.65;entryDx=0;entryDy=0;entryPerimeter=0;" edge="1" parent="1" source="9qOrJQhXBylwTHdZU7yv-4" target="9qOrJQhXBylwTHdZU7yv-9">
          <mxGeometry x="-0.9692" y="22" relative="1" as="geometry">
            <mxPoint x="142" y="66" as="sourcePoint" />
            <mxPoint x="480" y="66" as="targetPoint" />
            <Array as="points">
              <mxPoint x="250" y="150" />
              <mxPoint x="390" y="150" />
              <mxPoint x="390" y="179" />
            </Array>
            <mxPoint as="offset" />
          </mxGeometry>
        </mxCell>
        <mxCell id="9qOrJQhXBylwTHdZU7yv-22" value="1" style="endArrow=open;html=1;endSize=12;startArrow=diamondThin;startSize=14;startFill=1;edgeStyle=orthogonalEdgeStyle;align=left;verticalAlign=bottom;rounded=0;exitX=0.5;exitY=1;exitDx=0;exitDy=0;fillColor=#00FF00;strokeColor=#006600;entryX=0;entryY=0.5;entryDx=0;entryDy=0;" edge="1" parent="1" source="9qOrJQhXBylwTHdZU7yv-4" target="9qOrJQhXBylwTHdZU7yv-11">
          <mxGeometry x="-0.9692" y="22" relative="1" as="geometry">
            <mxPoint x="162" y="86" as="sourcePoint" />
            <mxPoint x="500" y="86" as="targetPoint" />
            <Array as="points">
              <mxPoint x="162" y="260" />
              <mxPoint x="162" y="320" />
              <mxPoint x="370" y="320" />
              <mxPoint x="370" y="250" />
            </Array>
            <mxPoint as="offset" />
          </mxGeometry>
        </mxCell>
        <mxCell id="9qOrJQhXBylwTHdZU7yv-24" value="&lt;span style=&quot;color: rgb(0, 0, 0); font-family: Helvetica; font-size: 11px; font-style: normal; font-variant-ligatures: normal; font-variant-caps: normal; font-weight: 400; letter-spacing: normal; orphans: 2; text-align: left; text-indent: 0px; text-transform: none; widows: 2; word-spacing: 0px; -webkit-text-stroke-width: 0px; background-color: rgb(255, 255, 255); text-decoration-thickness: initial; text-decoration-style: initial; text-decoration-color: initial; float: none; display: inline !important;&quot;&gt;2&lt;/span&gt;" style="text;whiteSpace=wrap;html=1;" vertex="1" parent="1">
          <mxGeometry x="370" y="120" width="40" height="40" as="geometry" />
        </mxCell>
        <mxCell id="9qOrJQhXBylwTHdZU7yv-25" value="&lt;span style=&quot;color: rgb(0, 0, 0); font-family: Helvetica; font-size: 11px; font-style: normal; font-variant-ligatures: normal; font-variant-caps: normal; font-weight: 400; letter-spacing: normal; orphans: 2; text-align: left; text-indent: 0px; text-transform: none; widows: 2; word-spacing: 0px; -webkit-text-stroke-width: 0px; background-color: rgb(255, 255, 255); text-decoration-thickness: initial; text-decoration-style: initial; text-decoration-color: initial; float: none; display: inline !important;&quot;&gt;2&lt;/span&gt;" style="text;whiteSpace=wrap;html=1;" vertex="1" parent="1">
          <mxGeometry x="384" y="260" width="40" height="40" as="geometry" />
        </mxCell>
        <mxCell id="9qOrJQhXBylwTHdZU7yv-27" value="DIAGRAMA DE CONPOSICION" style="text;html=1;align=center;verticalAlign=middle;resizable=0;points=[];autosize=1;strokeColor=none;fillColor=none;" vertex="1" parent="1">
          <mxGeometry x="550" y="90" width="200" height="30" as="geometry" />
        </mxCell>
        <mxCell id="9qOrJQhXBylwTHdZU7yv-28" value="" style="line;strokeWidth=1;fillColor=none;align=left;verticalAlign=middle;spacingTop=-1;spacingLeft=3;spacingRight=3;rotatable=0;labelPosition=right;points=[];portConstraint=eastwest;strokeColor=inherit;" vertex="1" parent="1">
          <mxGeometry y="360" width="820" height="8" as="geometry" />
        </mxCell>
        <mxCell id="9qOrJQhXBylwTHdZU7yv-30" value="Inmueble" style="swimlane;fontStyle=0;childLayout=stackLayout;horizontal=1;startSize=26;fillColor=none;horizontalStack=0;resizeParent=1;resizeParentMax=0;resizeLast=0;collapsible=1;marginBottom=0;whiteSpace=wrap;html=1;strokeColor=#99004D;" vertex="1" parent="1">
          <mxGeometry x="50" y="470" width="140" height="104" as="geometry" />
        </mxCell>
        <mxCell id="9qOrJQhXBylwTHdZU7yv-31" value="-&amp;nbsp;ubicacion&amp;nbsp; &amp;nbsp; &amp;nbsp; &amp;nbsp;" style="text;strokeColor=#99004D;fillColor=none;align=left;verticalAlign=top;spacingLeft=4;spacingRight=4;overflow=hidden;rotatable=0;points=[[0,0.5],[1,0.5]];portConstraint=eastwest;whiteSpace=wrap;html=1;" vertex="1" parent="9qOrJQhXBylwTHdZU7yv-30">
          <mxGeometry y="26" width="140" height="26" as="geometry" />
        </mxCell>
        <mxCell id="9qOrJQhXBylwTHdZU7yv-32" value="-&amp;nbsp;idInmueble&amp;nbsp; &amp;nbsp; &amp;nbsp;&amp;nbsp;" style="text;strokeColor=#99004D;fillColor=none;align=left;verticalAlign=top;spacingLeft=4;spacingRight=4;overflow=hidden;rotatable=0;points=[[0,0.5],[1,0.5]];portConstraint=eastwest;whiteSpace=wrap;html=1;" vertex="1" parent="9qOrJQhXBylwTHdZU7yv-30">
          <mxGeometry y="52" width="140" height="26" as="geometry" />
        </mxCell>
        <mxCell id="9qOrJQhXBylwTHdZU7yv-33" value="-&amp;nbsp;tipoInmueble&amp;nbsp; &amp;nbsp;&amp;nbsp;" style="text;strokeColor=#99004D;fillColor=none;align=left;verticalAlign=top;spacingLeft=4;spacingRight=4;overflow=hidden;rotatable=0;points=[[0,0.5],[1,0.5]];portConstraint=eastwest;whiteSpace=wrap;html=1;" vertex="1" parent="9qOrJQhXBylwTHdZU7yv-30">
          <mxGeometry y="78" width="140" height="26" as="geometry" />
        </mxCell>
        <mxCell id="9qOrJQhXBylwTHdZU7yv-34" value="Propiedad&amp;nbsp;" style="swimlane;fontStyle=0;childLayout=stackLayout;horizontal=1;startSize=26;fillColor=none;horizontalStack=0;resizeParent=1;resizeParentMax=0;resizeLast=0;collapsible=1;marginBottom=0;whiteSpace=wrap;html=1;strokeColor=#99004D;" vertex="1" parent="1">
          <mxGeometry x="320" y="460" width="140" height="140" as="geometry" />
        </mxCell>
        <mxCell id="9qOrJQhXBylwTHdZU7yv-35" value="- idPropiedad" style="text;strokeColor=#99004D;fillColor=none;align=left;verticalAlign=top;spacingLeft=4;spacingRight=4;overflow=hidden;rotatable=0;points=[[0,0.5],[1,0.5]];portConstraint=eastwest;whiteSpace=wrap;html=1;" vertex="1" parent="9qOrJQhXBylwTHdZU7yv-34">
          <mxGeometry y="26" width="140" height="26" as="geometry" />
        </mxCell>
        <mxCell id="9qOrJQhXBylwTHdZU7yv-36" value="-&amp;nbsp;titulo&amp;nbsp; &amp;nbsp; &amp;nbsp; &amp;nbsp; &amp;nbsp;&amp;nbsp;" style="text;strokeColor=#99004D;fillColor=none;align=left;verticalAlign=top;spacingLeft=4;spacingRight=4;overflow=hidden;rotatable=0;points=[[0,0.5],[1,0.5]];portConstraint=eastwest;whiteSpace=wrap;html=1;" vertex="1" parent="9qOrJQhXBylwTHdZU7yv-34">
          <mxGeometry y="52" width="140" height="26" as="geometry" />
        </mxCell>
        <mxCell id="9qOrJQhXBylwTHdZU7yv-37" value="-&amp;nbsp;descripciÃ³n&amp;nbsp; &amp;nbsp; &amp;nbsp;&lt;br&gt;&lt;br&gt;- precio" style="text;strokeColor=#99004D;fillColor=none;align=left;verticalAlign=top;spacingLeft=4;spacingRight=4;overflow=hidden;rotatable=0;points=[[0,0.5],[1,0.5]];portConstraint=eastwest;whiteSpace=wrap;html=1;" vertex="1" parent="9qOrJQhXBylwTHdZU7yv-34">
          <mxGeometry y="78" width="140" height="62" as="geometry" />
        </mxCell>
        <mxCell id="9qOrJQhXBylwTHdZU7yv-39" value="Casa" style="swimlane;fontStyle=0;childLayout=stackLayout;horizontal=1;startSize=26;fillColor=none;horizontalStack=0;resizeParent=1;resizeParentMax=0;resizeLast=0;collapsible=1;marginBottom=0;whiteSpace=wrap;html=1;strokeColor=#99004D;" vertex="1" parent="1">
          <mxGeometry x="580" y="460" width="140" height="104" as="geometry" />
        </mxCell>
        <mxCell id="9qOrJQhXBylwTHdZU7yv-40" value="- idCasa" style="text;strokeColor=#99004D;fillColor=none;align=left;verticalAlign=top;spacingLeft=4;spacingRight=4;overflow=hidden;rotatable=0;points=[[0,0.5],[1,0.5]];portConstraint=eastwest;whiteSpace=wrap;html=1;" vertex="1" parent="9qOrJQhXBylwTHdZU7yv-39">
          <mxGeometry y="26" width="140" height="26" as="geometry" />
        </mxCell>
        <mxCell id="9qOrJQhXBylwTHdZU7yv-41" value="-&amp;nbsp;numeroHabitaciones&amp;nbsp;" style="text;strokeColor=#99004D;fillColor=none;align=left;verticalAlign=top;spacingLeft=4;spacingRight=4;overflow=hidden;rotatable=0;points=[[0,0.5],[1,0.5]];portConstraint=eastwest;whiteSpace=wrap;html=1;" vertex="1" parent="9qOrJQhXBylwTHdZU7yv-39">
          <mxGeometry y="52" width="140" height="26" as="geometry" />
        </mxCell>
        <mxCell id="9qOrJQhXBylwTHdZU7yv-42" value="-&amp;nbsp;numeroBaÃ±os&amp;nbsp; &amp;nbsp; &amp;nbsp; &amp;nbsp;&amp;nbsp;" style="text;strokeColor=#99004D;fillColor=none;align=left;verticalAlign=top;spacingLeft=4;spacingRight=4;overflow=hidden;rotatable=0;points=[[0,0.5],[1,0.5]];portConstraint=eastwest;whiteSpace=wrap;html=1;" vertex="1" parent="9qOrJQhXBylwTHdZU7yv-39">
          <mxGeometry y="78" width="140" height="26" as="geometry" />
        </mxCell>
        <mxCell id="9qOrJQhXBylwTHdZU7yv-43" value="Apartamento&amp;nbsp;" style="swimlane;fontStyle=0;childLayout=stackLayout;horizontal=1;startSize=26;fillColor=none;horizontalStack=0;resizeParent=1;resizeParentMax=0;resizeLast=0;collapsible=1;marginBottom=0;whiteSpace=wrap;html=1;strokeColor=#99004D;" vertex="1" parent="1">
          <mxGeometry x="580" y="700" width="140" height="150" as="geometry" />
        </mxCell>
        <mxCell id="9qOrJQhXBylwTHdZU7yv-44" value="-&amp;nbsp;idApartamento&amp;nbsp; &amp;nbsp;" style="text;strokeColor=#99004D;fillColor=none;align=left;verticalAlign=top;spacingLeft=4;spacingRight=4;overflow=hidden;rotatable=0;points=[[0,0.5],[1,0.5]];portConstraint=eastwest;whiteSpace=wrap;html=1;" vertex="1" parent="9qOrJQhXBylwTHdZU7yv-43">
          <mxGeometry y="26" width="140" height="26" as="geometry" />
        </mxCell>
        <mxCell id="9qOrJQhXBylwTHdZU7yv-45" value="-&amp;nbsp;numeroHabitaciones&amp;nbsp;" style="text;strokeColor=#99004D;fillColor=none;align=left;verticalAlign=top;spacingLeft=4;spacingRight=4;overflow=hidden;rotatable=0;points=[[0,0.5],[1,0.5]];portConstraint=eastwest;whiteSpace=wrap;html=1;" vertex="1" parent="9qOrJQhXBylwTHdZU7yv-43">
          <mxGeometry y="52" width="140" height="26" as="geometry" />
        </mxCell>
        <mxCell id="9qOrJQhXBylwTHdZU7yv-46" value="-&amp;nbsp;numeroBaÃ±os&lt;br&gt;&amp;nbsp; &amp;nbsp; &amp;nbsp; &amp;nbsp;&amp;nbsp;&lt;br&gt;-piso" style="text;strokeColor=#99004D;fillColor=none;align=left;verticalAlign=top;spacingLeft=4;spacingRight=4;overflow=hidden;rotatable=0;points=[[0,0.5],[1,0.5]];portConstraint=eastwest;whiteSpace=wrap;html=1;" vertex="1" parent="9qOrJQhXBylwTHdZU7yv-43">
          <mxGeometry y="78" width="140" height="72" as="geometry" />
        </mxCell>
        <mxCell id="9qOrJQhXBylwTHdZU7yv-47" value="" style="endArrow=open;endSize=12;dashed=1;html=1;rounded=0;exitX=1;exitY=0.25;exitDx=0;exitDy=0;entryX=0;entryY=0.5;entryDx=0;entryDy=0;strokeColor=#99004D;" edge="1" parent="1" source="9qOrJQhXBylwTHdZU7yv-30" target="9qOrJQhXBylwTHdZU7yv-35">
          <mxGeometry width="160" relative="1" as="geometry">
            <mxPoint x="340" y="740" as="sourcePoint" />
            <mxPoint x="500" y="740" as="targetPoint" />
          </mxGeometry>
        </mxCell>
        <mxCell id="9qOrJQhXBylwTHdZU7yv-48" value="" style="endArrow=open;endSize=12;dashed=1;html=1;rounded=0;exitX=1;exitY=0.5;exitDx=0;exitDy=0;entryX=0;entryY=0.5;entryDx=0;entryDy=0;strokeColor=#99004D;" edge="1" parent="1" source="9qOrJQhXBylwTHdZU7yv-35" target="9qOrJQhXBylwTHdZU7yv-40">
          <mxGeometry width="160" relative="1" as="geometry">
            <mxPoint x="200" y="506" as="sourcePoint" />
            <mxPoint x="310" y="550" as="targetPoint" />
          </mxGeometry>
        </mxCell>
        <mxCell id="9qOrJQhXBylwTHdZU7yv-49" value="" style="endArrow=open;endSize=12;dashed=1;html=1;rounded=0;exitX=0.471;exitY=1.154;exitDx=0;exitDy=0;exitPerimeter=0;strokeColor=#99004D;" edge="1" parent="1" source="9qOrJQhXBylwTHdZU7yv-42" target="9qOrJQhXBylwTHdZU7yv-43">
          <mxGeometry width="160" relative="1" as="geometry">
            <mxPoint x="470" y="509" as="sourcePoint" />
            <mxPoint x="590" y="509" as="targetPoint" />
          </mxGeometry>
        </mxCell>
        <mxCell id="9qOrJQhXBylwTHdZU7yv-50" value="DIAGRAMA DE DEPENDENCIA&amp;nbsp;" style="text;html=1;align=center;verticalAlign=middle;resizable=0;points=[];autosize=1;strokeColor=none;fillColor=none;" vertex="1" parent="1">
          <mxGeometry x="150" y="700" width="200" height="30" as="geometry" />
        </mxCell>
        <mxCell id="9qOrJQhXBylwTHdZU7yv-51" value="" style="line;strokeWidth=1;fillColor=none;align=left;verticalAlign=middle;spacingTop=-1;spacingLeft=3;spacingRight=3;rotatable=0;labelPosition=right;points=[];portConstraint=eastwest;strokeColor=inherit;" vertex="1" parent="1">
          <mxGeometry x="20" y="890" width="790" height="8" as="geometry" />
        </mxCell>
        <mxCell id="9qOrJQhXBylwTHdZU7yv-52" value="Inmobiliaria&amp;nbsp; &amp;nbsp;" style="swimlane;fontStyle=0;childLayout=stackLayout;horizontal=1;startSize=26;fillColor=none;horizontalStack=0;resizeParent=1;resizeParentMax=0;resizeLast=0;collapsible=1;marginBottom=0;whiteSpace=wrap;html=1;strokeColor=#FF0000;" vertex="1" parent="1">
          <mxGeometry x="70" y="930" width="140" height="140" as="geometry" />
        </mxCell>
        <mxCell id="9qOrJQhXBylwTHdZU7yv-53" value="-&amp;nbsp;idInmobiliaria&amp;nbsp;&amp;nbsp;" style="text;strokeColor=#FF0000;fillColor=none;align=left;verticalAlign=top;spacingLeft=4;spacingRight=4;overflow=hidden;rotatable=0;points=[[0,0.5],[1,0.5]];portConstraint=eastwest;whiteSpace=wrap;html=1;" vertex="1" parent="9qOrJQhXBylwTHdZU7yv-52">
          <mxGeometry y="26" width="140" height="26" as="geometry" />
        </mxCell>
        <mxCell id="9qOrJQhXBylwTHdZU7yv-54" value="-&amp;nbsp;nombre&amp;nbsp; &amp;nbsp; &amp;nbsp; &amp;nbsp; &amp;nbsp;&amp;nbsp;" style="text;strokeColor=#FF0000;fillColor=none;align=left;verticalAlign=top;spacingLeft=4;spacingRight=4;overflow=hidden;rotatable=0;points=[[0,0.5],[1,0.5]];portConstraint=eastwest;whiteSpace=wrap;html=1;" vertex="1" parent="9qOrJQhXBylwTHdZU7yv-52">
          <mxGeometry y="52" width="140" height="26" as="geometry" />
        </mxCell>
        <mxCell id="9qOrJQhXBylwTHdZU7yv-55" value="-&amp;nbsp;direcciÃ³n&amp;nbsp; &amp;nbsp;&lt;br&gt;&lt;br&gt;-empleados&amp;nbsp; &amp;nbsp;&amp;nbsp;" style="text;strokeColor=#FF0000;fillColor=none;align=left;verticalAlign=top;spacingLeft=4;spacingRight=4;overflow=hidden;rotatable=0;points=[[0,0.5],[1,0.5]];portConstraint=eastwest;whiteSpace=wrap;html=1;" vertex="1" parent="9qOrJQhXBylwTHdZU7yv-52">
          <mxGeometry y="78" width="140" height="62" as="geometry" />
        </mxCell>
        <mxCell id="9qOrJQhXBylwTHdZU7yv-56" value="Empleado&amp;nbsp; &amp;nbsp; &amp;nbsp;" style="swimlane;fontStyle=0;childLayout=stackLayout;horizontal=1;startSize=26;fillColor=none;horizontalStack=0;resizeParent=1;resizeParentMax=0;resizeLast=0;collapsible=1;marginBottom=0;whiteSpace=wrap;html=1;strokeColor=#FF0000;" vertex="1" parent="1">
          <mxGeometry x="320" y="930" width="140" height="104" as="geometry" />
        </mxCell>
        <mxCell id="9qOrJQhXBylwTHdZU7yv-57" value="-&amp;nbsp;idEmpleado&amp;nbsp; &amp;nbsp; &amp;nbsp;&amp;nbsp;" style="text;strokeColor=#FF0000;fillColor=none;align=left;verticalAlign=top;spacingLeft=4;spacingRight=4;overflow=hidden;rotatable=0;points=[[0,0.5],[1,0.5]];portConstraint=eastwest;whiteSpace=wrap;html=1;" vertex="1" parent="9qOrJQhXBylwTHdZU7yv-56">
          <mxGeometry y="26" width="140" height="26" as="geometry" />
        </mxCell>
        <mxCell id="9qOrJQhXBylwTHdZU7yv-58" value="- nombre" style="text;strokeColor=#FF0000;fillColor=none;align=left;verticalAlign=top;spacingLeft=4;spacingRight=4;overflow=hidden;rotatable=0;points=[[0,0.5],[1,0.5]];portConstraint=eastwest;whiteSpace=wrap;html=1;" vertex="1" parent="9qOrJQhXBylwTHdZU7yv-56">
          <mxGeometry y="52" width="140" height="26" as="geometry" />
        </mxCell>
        <mxCell id="9qOrJQhXBylwTHdZU7yv-59" value="- cargo&amp;nbsp;" style="text;strokeColor=#FF0000;fillColor=none;align=left;verticalAlign=top;spacingLeft=4;spacingRight=4;overflow=hidden;rotatable=0;points=[[0,0.5],[1,0.5]];portConstraint=eastwest;whiteSpace=wrap;html=1;" vertex="1" parent="9qOrJQhXBylwTHdZU7yv-56">
          <mxGeometry y="78" width="140" height="26" as="geometry" />
        </mxCell>
        <mxCell id="9qOrJQhXBylwTHdZU7yv-60" value="Cliente&amp;nbsp; &amp;nbsp; &amp;nbsp;&amp;nbsp;" style="swimlane;fontStyle=0;childLayout=stackLayout;horizontal=1;startSize=26;fillColor=none;horizontalStack=0;resizeParent=1;resizeParentMax=0;resizeLast=0;collapsible=1;marginBottom=0;whiteSpace=wrap;html=1;strokeColor=#FF0000;" vertex="1" parent="1">
          <mxGeometry x="530" y="930" width="140" height="150" as="geometry" />
        </mxCell>
        <mxCell id="9qOrJQhXBylwTHdZU7yv-61" value="-idCliente&amp;nbsp; &amp;nbsp; &amp;nbsp; &amp;nbsp;" style="text;strokeColor=#FF0000;fillColor=none;align=left;verticalAlign=top;spacingLeft=4;spacingRight=4;overflow=hidden;rotatable=0;points=[[0,0.5],[1,0.5]];portConstraint=eastwest;whiteSpace=wrap;html=1;" vertex="1" parent="9qOrJQhXBylwTHdZU7yv-60">
          <mxGeometry y="26" width="140" height="26" as="geometry" />
        </mxCell>
        <mxCell id="9qOrJQhXBylwTHdZU7yv-62" value="- nombre" style="text;strokeColor=#FF0000;fillColor=none;align=left;verticalAlign=top;spacingLeft=4;spacingRight=4;overflow=hidden;rotatable=0;points=[[0,0.5],[1,0.5]];portConstraint=eastwest;whiteSpace=wrap;html=1;" vertex="1" parent="9qOrJQhXBylwTHdZU7yv-60">
          <mxGeometry y="52" width="140" height="26" as="geometry" />
        </mxCell>
        <mxCell id="9qOrJQhXBylwTHdZU7yv-63" value="- direccion&lt;br&gt;&lt;br&gt;- email" style="text;strokeColor=#FF0000;fillColor=none;align=left;verticalAlign=top;spacingLeft=4;spacingRight=4;overflow=hidden;rotatable=0;points=[[0,0.5],[1,0.5]];portConstraint=eastwest;whiteSpace=wrap;html=1;" vertex="1" parent="9qOrJQhXBylwTHdZU7yv-60">
          <mxGeometry y="78" width="140" height="72" as="geometry" />
        </mxCell>
        <mxCell id="9qOrJQhXBylwTHdZU7yv-64" value="Propiedad&amp;nbsp; &amp;nbsp; &amp;nbsp;&amp;nbsp;" style="swimlane;fontStyle=0;childLayout=stackLayout;horizontal=1;startSize=26;fillColor=none;horizontalStack=0;resizeParent=1;resizeParentMax=0;resizeLast=0;collapsible=1;marginBottom=0;whiteSpace=wrap;html=1;strokeColor=#FF0000;" vertex="1" parent="1">
          <mxGeometry x="60" y="1120" width="140" height="150" as="geometry" />
        </mxCell>
        <mxCell id="9qOrJQhXBylwTHdZU7yv-65" value="-&amp;nbsp;idPropiedad&amp;nbsp; &amp;nbsp; &amp;nbsp;" style="text;strokeColor=#FF0000;fillColor=none;align=left;verticalAlign=top;spacingLeft=4;spacingRight=4;overflow=hidden;rotatable=0;points=[[0,0.5],[1,0.5]];portConstraint=eastwest;whiteSpace=wrap;html=1;" vertex="1" parent="9qOrJQhXBylwTHdZU7yv-64">
          <mxGeometry y="26" width="140" height="26" as="geometry" />
        </mxCell>
        <mxCell id="9qOrJQhXBylwTHdZU7yv-66" value="-&amp;nbsp;ubicacion&amp;nbsp; &amp;nbsp; &amp;nbsp; &amp;nbsp;" style="text;strokeColor=#FF0000;fillColor=none;align=left;verticalAlign=top;spacingLeft=4;spacingRight=4;overflow=hidden;rotatable=0;points=[[0,0.5],[1,0.5]];portConstraint=eastwest;whiteSpace=wrap;html=1;" vertex="1" parent="9qOrJQhXBylwTHdZU7yv-64">
          <mxGeometry y="52" width="140" height="26" as="geometry" />
        </mxCell>
        <mxCell id="9qOrJQhXBylwTHdZU7yv-67" value="-&amp;nbsp;tipoInmueble&amp;nbsp; &amp;nbsp;&amp;nbsp;&lt;br&gt;&lt;br&gt;-&amp;nbsp;propietario&amp;nbsp; &amp;nbsp; &amp;nbsp;" style="text;strokeColor=#FF0000;fillColor=none;align=left;verticalAlign=top;spacingLeft=4;spacingRight=4;overflow=hidden;rotatable=0;points=[[0,0.5],[1,0.5]];portConstraint=eastwest;whiteSpace=wrap;html=1;" vertex="1" parent="9qOrJQhXBylwTHdZU7yv-64">
          <mxGeometry y="78" width="140" height="72" as="geometry" />
        </mxCell>
        <mxCell id="9qOrJQhXBylwTHdZU7yv-68" value="Inmobiliaria&amp;nbsp; &amp;nbsp;" style="rounded=1;whiteSpace=wrap;html=1;strokeColor=#FF0000;" vertex="1" parent="1">
          <mxGeometry x="400" y="1340" width="120" height="60" as="geometry" />
        </mxCell>
        <mxCell id="9qOrJQhXBylwTHdZU7yv-69" value="empleado" style="rounded=1;whiteSpace=wrap;html=1;strokeColor=#FF0000;" vertex="1" parent="1">
          <mxGeometry x="170" y="1340" width="120" height="60" as="geometry" />
        </mxCell>
        <mxCell id="9qOrJQhXBylwTHdZU7yv-70" value="Propiedad" style="rounded=1;whiteSpace=wrap;html=1;strokeColor=#FF0000;" vertex="1" parent="1">
          <mxGeometry x="384" y="1200" width="120" height="60" as="geometry" />
        </mxCell>
        <mxCell id="9qOrJQhXBylwTHdZU7yv-71" value="cliente" style="rounded=1;whiteSpace=wrap;html=1;strokeColor=#FF0000;" vertex="1" parent="1">
          <mxGeometry x="400" y="1560" width="120" height="60" as="geometry" />
        </mxCell>
        <mxCell id="9qOrJQhXBylwTHdZU7yv-72" value="idInmobiliaria&amp;nbsp; &amp;nbsp;" style="rounded=1;whiteSpace=wrap;html=1;strokeColor=#FF0000;" vertex="1" parent="1">
          <mxGeometry x="640" y="1340" width="120" height="60" as="geometry" />
        </mxCell>
        <mxCell id="9qOrJQhXBylwTHdZU7yv-74" value="1" style="endArrow=open;html=1;endSize=12;startArrow=diamondThin;startSize=14;startFill=0;edgeStyle=orthogonalEdgeStyle;align=left;verticalAlign=bottom;rounded=0;entryX=0.5;entryY=1;entryDx=0;entryDy=0;exitX=0.5;exitY=0;exitDx=0;exitDy=0;strokeColor=#FF0000;" edge="1" parent="1" source="9qOrJQhXBylwTHdZU7yv-68" target="9qOrJQhXBylwTHdZU7yv-70">
          <mxGeometry x="-1" y="10" relative="1" as="geometry">
            <mxPoint x="460" y="1330" as="sourcePoint" />
            <mxPoint x="410" y="1380" as="targetPoint" />
            <mxPoint as="offset" />
          </mxGeometry>
        </mxCell>
        <mxCell id="9qOrJQhXBylwTHdZU7yv-75" value="1" style="endArrow=open;html=1;endSize=12;startArrow=diamondThin;startSize=14;startFill=0;edgeStyle=orthogonalEdgeStyle;align=left;verticalAlign=bottom;rounded=0;exitX=0.5;exitY=1;exitDx=0;exitDy=0;entryX=0.5;entryY=0;entryDx=0;entryDy=0;strokeColor=#FF0000;" edge="1" parent="1" source="9qOrJQhXBylwTHdZU7yv-68" target="9qOrJQhXBylwTHdZU7yv-71">
          <mxGeometry x="-1" y="3" relative="1" as="geometry">
            <mxPoint x="310" y="1405" as="sourcePoint" />
            <mxPoint x="460" y="1490" as="targetPoint" />
          </mxGeometry>
        </mxCell>
        <mxCell id="9qOrJQhXBylwTHdZU7yv-76" value="1" style="endArrow=open;html=1;endSize=12;startArrow=diamondThin;startSize=14;startFill=0;edgeStyle=orthogonalEdgeStyle;align=left;verticalAlign=bottom;rounded=0;exitX=1.008;exitY=0.617;exitDx=0;exitDy=0;exitPerimeter=0;strokeColor=#FF0000;" edge="1" parent="1" source="9qOrJQhXBylwTHdZU7yv-68">
          <mxGeometry x="-1" y="3" relative="1" as="geometry">
            <mxPoint x="320" y="1415" as="sourcePoint" />
            <mxPoint x="640" y="1370" as="targetPoint" />
          </mxGeometry>
        </mxCell>
        <mxCell id="9qOrJQhXBylwTHdZU7yv-78" value="&lt;span style=&quot;font-size: 11px; background-color: rgb(255, 255, 255);&quot;&gt;2&lt;/span&gt;" style="text;whiteSpace=wrap;html=1;strokeColor=#FF0000;" vertex="1" parent="1">
          <mxGeometry x="300" y="1330" width="40" height="40" as="geometry" />
        </mxCell>
        <mxCell id="9qOrJQhXBylwTHdZU7yv-79" value="&lt;span style=&quot;color: rgb(0, 0, 0); font-family: Helvetica; font-size: 11px; font-style: normal; font-variant-ligatures: normal; font-variant-caps: normal; font-weight: 400; letter-spacing: normal; orphans: 2; text-align: left; text-indent: 0px; text-transform: none; widows: 2; word-spacing: 0px; -webkit-text-stroke-width: 0px; background-color: rgb(255, 255, 255); text-decoration-thickness: initial; text-decoration-style: initial; text-decoration-color: initial; float: none; display: inline !important;&quot;&gt;2&lt;/span&gt;" style="text;whiteSpace=wrap;html=1;strokeColor=#FF0000;" vertex="1" parent="1">
          <mxGeometry x="460" y="1260" width="40" height="40" as="geometry" />
        </mxCell>
        <mxCell id="9qOrJQhXBylwTHdZU7yv-80" value="1" style="endArrow=open;html=1;endSize=12;startArrow=diamondThin;startSize=14;startFill=0;edgeStyle=orthogonalEdgeStyle;align=left;verticalAlign=bottom;rounded=0;entryX=1;entryY=0.5;entryDx=0;entryDy=0;exitX=0;exitY=0.5;exitDx=0;exitDy=0;strokeColor=#FF0000;" edge="1" parent="1" source="9qOrJQhXBylwTHdZU7yv-68" target="9qOrJQhXBylwTHdZU7yv-69">
          <mxGeometry x="-1" y="3" relative="1" as="geometry">
            <mxPoint x="380" y="1370" as="sourcePoint" />
            <mxPoint x="470" y="1570" as="targetPoint" />
          </mxGeometry>
        </mxCell>
        <mxCell id="9qOrJQhXBylwTHdZU7yv-82" value="&lt;span style=&quot;font-size: 11px; background-color: rgb(255, 255, 255);&quot;&gt;2&lt;/span&gt;" style="text;whiteSpace=wrap;html=1;strokeColor=#FF0000;" vertex="1" parent="1">
          <mxGeometry x="470" y="1510" width="20" height="30" as="geometry" />
        </mxCell>
        <mxCell id="9qOrJQhXBylwTHdZU7yv-83" value="&lt;span style=&quot;font-size: 11px; background-color: rgb(255, 255, 255);&quot;&gt;2&lt;/span&gt;" style="text;whiteSpace=wrap;html=1;strokeColor=#FF0000;" vertex="1" parent="1">
          <mxGeometry x="590" y="1380" width="40" height="40" as="geometry" />
        </mxCell>
        <mxCell id="9qOrJQhXBylwTHdZU7yv-85" value="1" style="endArrow=open;html=1;endSize=12;startArrow=diamondThin;startSize=14;startFill=0;edgeStyle=orthogonalEdgeStyle;align=left;verticalAlign=bottom;rounded=0;exitX=1.007;exitY=0.091;exitDx=0;exitDy=0;exitPerimeter=0;entryX=0.007;entryY=0.123;entryDx=0;entryDy=0;entryPerimeter=0;strokeColor=#FF0000;" edge="1" parent="1" source="9qOrJQhXBylwTHdZU7yv-52" target="9qOrJQhXBylwTHdZU7yv-56">
          <mxGeometry x="-1" y="3" relative="1" as="geometry">
            <mxPoint x="510" y="1050" as="sourcePoint" />
            <mxPoint x="670" y="1050" as="targetPoint" />
          </mxGeometry>
        </mxCell>
        <mxCell id="9qOrJQhXBylwTHdZU7yv-86" value="&lt;span style=&quot;color: rgb(0, 0, 0); font-family: Helvetica; font-size: 11px; font-style: normal; font-variant-ligatures: normal; font-variant-caps: normal; font-weight: 400; letter-spacing: normal; orphans: 2; text-align: left; text-indent: 0px; text-transform: none; widows: 2; word-spacing: 0px; -webkit-text-stroke-width: 0px; background-color: rgb(255, 255, 255); text-decoration-thickness: initial; text-decoration-style: initial; text-decoration-color: initial; float: none; display: inline !important;&quot;&gt;2&lt;/span&gt;" style="text;whiteSpace=wrap;html=1;strokeColor=#FF0000;" vertex="1" parent="1">
          <mxGeometry x="290" y="950" width="40" height="40" as="geometry" />
        </mxCell>
        <mxCell id="9qOrJQhXBylwTHdZU7yv-89" value="1" style="endArrow=open;html=1;endSize=12;startArrow=diamondThin;startSize=14;startFill=0;edgeStyle=orthogonalEdgeStyle;align=left;verticalAlign=bottom;rounded=0;strokeColor=#FF0000;" edge="1" parent="1" source="9qOrJQhXBylwTHdZU7yv-56" target="9qOrJQhXBylwTHdZU7yv-60">
          <mxGeometry x="-1" y="3" relative="1" as="geometry">
            <mxPoint x="480" y="950" as="sourcePoint" />
            <mxPoint x="331" y="953" as="targetPoint" />
          </mxGeometry>
        </mxCell>
        <mxCell id="9qOrJQhXBylwTHdZU7yv-90" value="&lt;span style=&quot;color: rgb(0, 0, 0); font-family: Helvetica; font-size: 11px; font-style: normal; font-variant-ligatures: normal; font-variant-caps: normal; font-weight: 400; letter-spacing: normal; orphans: 2; text-align: left; text-indent: 0px; text-transform: none; widows: 2; word-spacing: 0px; -webkit-text-stroke-width: 0px; background-color: rgb(255, 255, 255); text-decoration-thickness: initial; text-decoration-style: initial; text-decoration-color: initial; float: none; display: inline !important;&quot;&gt;2&lt;/span&gt;" style="text;whiteSpace=wrap;html=1;strokeColor=#FF0000;" vertex="1" parent="1">
          <mxGeometry x="500" y="970" width="40" height="40" as="geometry" />
        </mxCell>
        <mxCell id="9qOrJQhXBylwTHdZU7yv-91" value="1" style="endArrow=open;html=1;endSize=12;startArrow=diamondThin;startSize=14;startFill=0;edgeStyle=orthogonalEdgeStyle;align=left;verticalAlign=bottom;rounded=0;entryX=0.5;entryY=0;entryDx=0;entryDy=0;strokeColor=#FF0000;" edge="1" parent="1" target="9qOrJQhXBylwTHdZU7yv-64">
          <mxGeometry x="-1" y="3" relative="1" as="geometry">
            <mxPoint x="610" y="1090" as="sourcePoint" />
            <mxPoint x="331" y="953" as="targetPoint" />
          </mxGeometry>
        </mxCell>
        <mxCell id="9qOrJQhXBylwTHdZU7yv-92" value="&lt;span style=&quot;color: rgb(0, 0, 0); font-family: Helvetica; font-size: 11px; font-style: normal; font-variant-ligatures: normal; font-variant-caps: normal; font-weight: 400; letter-spacing: normal; orphans: 2; text-align: left; text-indent: 0px; text-transform: none; widows: 2; word-spacing: 0px; -webkit-text-stroke-width: 0px; background-color: rgb(255, 255, 255); text-decoration-thickness: initial; text-decoration-style: initial; text-decoration-color: initial; float: none; display: inline !important;&quot;&gt;2&lt;/span&gt;" style="text;whiteSpace=wrap;html=1;strokeColor=#FF0000;" vertex="1" parent="1">
          <mxGeometry x="150" y="1090" width="40" height="40" as="geometry" />
        </mxCell>
        <mxCell id="9qOrJQhXBylwTHdZU7yv-93" value="DIAGRAMA DE AGREGACION&amp;nbsp;" style="text;html=1;align=center;verticalAlign=middle;resizable=0;points=[];autosize=1;strokeColor=none;fillColor=none;" vertex="1" parent="1">
          <mxGeometry x="25" y="1450" width="190" height="30" as="geometry" />
        </mxCell>
        <mxCell id="9qOrJQhXBylwTHdZU7yv-94" value="" style="line;strokeWidth=1;fillColor=none;align=left;verticalAlign=middle;spacingTop=-1;spacingLeft=3;spacingRight=3;rotatable=0;labelPosition=right;points=[];portConstraint=eastwest;strokeColor=inherit;" vertex="1" parent="1">
          <mxGeometry x="30" y="1680" width="770" height="8" as="geometry" />
        </mxCell>
        <mxCell id="9qOrJQhXBylwTHdZU7yv-96" value="Cliente&amp;nbsp;" style="html=1;whiteSpace=wrap;strokeColor=#0000FF;" vertex="1" parent="1">
          <mxGeometry x="304" y="1740" width="110" height="50" as="geometry" />
        </mxCell>
        <mxCell id="9qOrJQhXBylwTHdZU7yv-98" value="Empleado" style="html=1;whiteSpace=wrap;strokeColor=#0000FF;" vertex="1" parent="1">
          <mxGeometry x="490" y="1740" width="110" height="50" as="geometry" />
        </mxCell>
        <mxCell id="9qOrJQhXBylwTHdZU7yv-99" value="Inmbobiliaria" style="html=1;whiteSpace=wrap;strokeColor=#0000FF;" vertex="1" parent="1">
          <mxGeometry x="314" y="1900" width="110" height="50" as="geometry" />
        </mxCell>
        <mxCell id="9qOrJQhXBylwTHdZU7yv-101" value="Propiedad&amp;nbsp;" style="html=1;whiteSpace=wrap;strokeColor=#0000FF;" vertex="1" parent="1">
          <mxGeometry x="115" y="1740" width="110" height="50" as="geometry" />
        </mxCell>
        <mxCell id="9qOrJQhXBylwTHdZU7yv-102" value="" style="endArrow=open;endSize=12;dashed=1;html=1;rounded=0;exitX=0.5;exitY=0;exitDx=0;exitDy=0;entryX=0.5;entryY=1;entryDx=0;entryDy=0;strokeColor=#0000FF;" edge="1" parent="1" source="9qOrJQhXBylwTHdZU7yv-99" target="9qOrJQhXBylwTHdZU7yv-101">
          <mxGeometry width="160" relative="1" as="geometry">
            <mxPoint x="510" y="1910" as="sourcePoint" />
            <mxPoint x="670" y="1910" as="targetPoint" />
            <Array as="points">
              <mxPoint x="200" y="1820" />
            </Array>
          </mxGeometry>
        </mxCell>
        <mxCell id="9qOrJQhXBylwTHdZU7yv-103" value="" style="endArrow=open;endSize=12;dashed=1;html=1;rounded=0;strokeColor=#0000FF;" edge="1" parent="1" target="9qOrJQhXBylwTHdZU7yv-96">
          <mxGeometry width="160" relative="1" as="geometry">
            <mxPoint x="370" y="1900" as="sourcePoint" />
            <mxPoint x="180" y="1800" as="targetPoint" />
          </mxGeometry>
        </mxCell>
        <mxCell id="9qOrJQhXBylwTHdZU7yv-104" value="" style="endArrow=open;endSize=12;dashed=1;html=1;rounded=0;entryX=0.5;entryY=1;entryDx=0;entryDy=0;exitX=0.5;exitY=0;exitDx=0;exitDy=0;strokeColor=#0000FF;" edge="1" parent="1" source="9qOrJQhXBylwTHdZU7yv-99" target="9qOrJQhXBylwTHdZU7yv-98">
          <mxGeometry width="160" relative="1" as="geometry">
            <mxPoint x="380" y="1870" as="sourcePoint" />
            <mxPoint x="190" y="1810" as="targetPoint" />
          </mxGeometry>
        </mxCell>
        <mxCell id="9qOrJQhXBylwTHdZU7yv-106" value="&lt;span style=&quot;font-size: 11px; background-color: rgb(255, 255, 255);&quot;&gt;2&lt;/span&gt;" style="text;whiteSpace=wrap;html=1;strokeColor=#0000FF;" vertex="1" parent="1">
          <mxGeometry x="175" y="1800" width="15" height="30" as="geometry" />
        </mxCell>
        <mxCell id="9qOrJQhXBylwTHdZU7yv-107" value="&lt;span style=&quot;font-size: 11px; background-color: rgb(255, 255, 255);&quot;&gt;2&lt;/span&gt;" style="text;whiteSpace=wrap;html=1;strokeColor=#0000FF;" vertex="1" parent="1">
          <mxGeometry x="340" y="1790" width="15" height="30" as="geometry" />
        </mxCell>
        <mxCell id="9qOrJQhXBylwTHdZU7yv-109" value="&lt;span style=&quot;font-size: 11px; background-color: rgb(255, 255, 255);&quot;&gt;2&lt;/span&gt;" style="text;whiteSpace=wrap;html=1;strokeColor=#0000FF;" vertex="1" parent="1">
          <mxGeometry x="550" y="1790" width="15" height="30" as="geometry" />
        </mxCell>
        <mxCell id="9qOrJQhXBylwTHdZU7yv-110" value="&lt;span style=&quot;font-size: 11px; background-color: rgb(255, 255, 255);&quot;&gt;1&lt;/span&gt;" style="text;whiteSpace=wrap;html=1;strokeColor=#0000FF;" vertex="1" parent="1">
          <mxGeometry x="436.5" y="1870" width="15" height="30" as="geometry" />
        </mxCell>
        <mxCell id="9qOrJQhXBylwTHdZU7yv-111" value="&lt;span style=&quot;font-size: 11px; background-color: rgb(255, 255, 255);&quot;&gt;1&lt;/span&gt;" style="text;whiteSpace=wrap;html=1;strokeColor=#0000FF;" vertex="1" parent="1">
          <mxGeometry x="380" y="1860" width="15" height="30" as="geometry" />
        </mxCell>
        <mxCell id="9qOrJQhXBylwTHdZU7yv-112" value="&lt;span style=&quot;font-size: 11px; background-color: rgb(255, 255, 255);&quot;&gt;1&lt;/span&gt;" style="text;whiteSpace=wrap;html=1;strokeColor=#0000FF;" vertex="1" parent="1">
          <mxGeometry x="300" y="1870" width="15" height="30" as="geometry" />
        </mxCell>
        <mxCell id="9qOrJQhXBylwTHdZU7yv-113" value="DIEGRAMA DE DEPENDENCIA&amp;nbsp;" style="text;html=1;align=center;verticalAlign=middle;resizable=0;points=[];autosize=1;strokeColor=none;fillColor=none;" vertex="1" parent="1">
          <mxGeometry x="580" y="1858" width="200" height="30" as="geometry" />
        </mxCell>
        <mxCell id="9qOrJQhXBylwTHdZU7yv-114" value="" style="line;strokeWidth=1;fillColor=none;align=left;verticalAlign=middle;spacingTop=-1;spacingLeft=3;spacingRight=3;rotatable=0;labelPosition=right;points=[];portConstraint=eastwest;strokeColor=inherit;" vertex="1" parent="1">
          <mxGeometry x="10" y="1990" width="790" height="8" as="geometry" />
        </mxCell>
        <mxCell id="9qOrJQhXBylwTHdZU7yv-115" value="Inmobiliaria&amp;nbsp; &amp;nbsp;" style="swimlane;fontStyle=0;childLayout=stackLayout;horizontal=1;startSize=26;fillColor=none;horizontalStack=0;resizeParent=1;resizeParentMax=0;resizeLast=0;collapsible=1;marginBottom=0;whiteSpace=wrap;html=1;strokeColor=#990099;" vertex="1" parent="1">
          <mxGeometry x="100" y="2056" width="140" height="104" as="geometry" />
        </mxCell>
        <mxCell id="9qOrJQhXBylwTHdZU7yv-116" value="-&amp;nbsp;idInmobiliaria&amp;nbsp;&amp;nbsp;" style="text;strokeColor=#990099;fillColor=none;align=left;verticalAlign=top;spacingLeft=4;spacingRight=4;overflow=hidden;rotatable=0;points=[[0,0.5],[1,0.5]];portConstraint=eastwest;whiteSpace=wrap;html=1;" vertex="1" parent="9qOrJQhXBylwTHdZU7yv-115">
          <mxGeometry y="26" width="140" height="26" as="geometry" />
        </mxCell>
        <mxCell id="9qOrJQhXBylwTHdZU7yv-117" value="- nombre" style="text;strokeColor=#990099;fillColor=none;align=left;verticalAlign=top;spacingLeft=4;spacingRight=4;overflow=hidden;rotatable=0;points=[[0,0.5],[1,0.5]];portConstraint=eastwest;whiteSpace=wrap;html=1;" vertex="1" parent="9qOrJQhXBylwTHdZU7yv-115">
          <mxGeometry y="52" width="140" height="26" as="geometry" />
        </mxCell>
        <mxCell id="9qOrJQhXBylwTHdZU7yv-118" value="- direccion&amp;nbsp;" style="text;strokeColor=#990099;fillColor=none;align=left;verticalAlign=top;spacingLeft=4;spacingRight=4;overflow=hidden;rotatable=0;points=[[0,0.5],[1,0.5]];portConstraint=eastwest;whiteSpace=wrap;html=1;" vertex="1" parent="9qOrJQhXBylwTHdZU7yv-115">
          <mxGeometry y="78" width="140" height="26" as="geometry" />
        </mxCell>
        <mxCell id="9qOrJQhXBylwTHdZU7yv-119" value="Empleado&amp;nbsp; &amp;nbsp; &amp;nbsp;" style="swimlane;fontStyle=0;childLayout=stackLayout;horizontal=1;startSize=26;fillColor=none;horizontalStack=0;resizeParent=1;resizeParentMax=0;resizeLast=0;collapsible=1;marginBottom=0;whiteSpace=wrap;html=1;strokeColor=#990099;" vertex="1" parent="1">
          <mxGeometry x="370" y="2030" width="140" height="104" as="geometry" />
        </mxCell>
        <mxCell id="9qOrJQhXBylwTHdZU7yv-120" value="-&amp;nbsp;idEmpleado&amp;nbsp; &amp;nbsp; &amp;nbsp;&amp;nbsp;" style="text;strokeColor=#990099;fillColor=none;align=left;verticalAlign=top;spacingLeft=4;spacingRight=4;overflow=hidden;rotatable=0;points=[[0,0.5],[1,0.5]];portConstraint=eastwest;whiteSpace=wrap;html=1;" vertex="1" parent="9qOrJQhXBylwTHdZU7yv-119">
          <mxGeometry y="26" width="140" height="26" as="geometry" />
        </mxCell>
        <mxCell id="9qOrJQhXBylwTHdZU7yv-121" value="-&amp;nbsp;nombre&amp;nbsp; &amp;nbsp; &amp;nbsp; &amp;nbsp; &amp;nbsp;&amp;nbsp;" style="text;strokeColor=#990099;fillColor=none;align=left;verticalAlign=top;spacingLeft=4;spacingRight=4;overflow=hidden;rotatable=0;points=[[0,0.5],[1,0.5]];portConstraint=eastwest;whiteSpace=wrap;html=1;" vertex="1" parent="9qOrJQhXBylwTHdZU7yv-119">
          <mxGeometry y="52" width="140" height="26" as="geometry" />
        </mxCell>
        <mxCell id="9qOrJQhXBylwTHdZU7yv-122" value="-&amp;nbsp;cargo&amp;nbsp; &amp;nbsp; &amp;nbsp; &amp;nbsp; &amp;nbsp; &amp;nbsp;" style="text;strokeColor=#990099;fillColor=none;align=left;verticalAlign=top;spacingLeft=4;spacingRight=4;overflow=hidden;rotatable=0;points=[[0,0.5],[1,0.5]];portConstraint=eastwest;whiteSpace=wrap;html=1;" vertex="1" parent="9qOrJQhXBylwTHdZU7yv-119">
          <mxGeometry y="78" width="140" height="26" as="geometry" />
        </mxCell>
        <mxCell id="9qOrJQhXBylwTHdZU7yv-123" value="Cliente&amp;nbsp; &amp;nbsp; &amp;nbsp;&amp;nbsp;" style="swimlane;fontStyle=0;childLayout=stackLayout;horizontal=1;startSize=26;fillColor=none;horizontalStack=0;resizeParent=1;resizeParentMax=0;resizeLast=0;collapsible=1;marginBottom=0;whiteSpace=wrap;html=1;strokeColor=#990099;" vertex="1" parent="1">
          <mxGeometry x="640" y="2050" width="140" height="150" as="geometry" />
        </mxCell>
        <mxCell id="9qOrJQhXBylwTHdZU7yv-124" value="-&amp;nbsp;idCliente&amp;nbsp; &amp;nbsp; &amp;nbsp; &amp;nbsp;" style="text;strokeColor=#990099;fillColor=none;align=left;verticalAlign=top;spacingLeft=4;spacingRight=4;overflow=hidden;rotatable=0;points=[[0,0.5],[1,0.5]];portConstraint=eastwest;whiteSpace=wrap;html=1;" vertex="1" parent="9qOrJQhXBylwTHdZU7yv-123">
          <mxGeometry y="26" width="140" height="26" as="geometry" />
        </mxCell>
        <mxCell id="9qOrJQhXBylwTHdZU7yv-125" value="-&amp;nbsp;nombre&amp;nbsp; &amp;nbsp; &amp;nbsp; &amp;nbsp; &amp;nbsp;&amp;nbsp;" style="text;strokeColor=#990099;fillColor=none;align=left;verticalAlign=top;spacingLeft=4;spacingRight=4;overflow=hidden;rotatable=0;points=[[0,0.5],[1,0.5]];portConstraint=eastwest;whiteSpace=wrap;html=1;" vertex="1" parent="9qOrJQhXBylwTHdZU7yv-123">
          <mxGeometry y="52" width="140" height="26" as="geometry" />
        </mxCell>
        <mxCell id="9qOrJQhXBylwTHdZU7yv-126" value="-&amp;nbsp;direccion&amp;nbsp; &amp;nbsp; &amp;nbsp; &amp;nbsp;&lt;br&gt;&lt;br&gt;-email&amp;nbsp; &amp;nbsp; &amp;nbsp; &amp;nbsp; &amp;nbsp; &amp;nbsp;&amp;nbsp; &amp;nbsp; &amp;nbsp; &amp;nbsp;" style="text;strokeColor=#990099;fillColor=none;align=left;verticalAlign=top;spacingLeft=4;spacingRight=4;overflow=hidden;rotatable=0;points=[[0,0.5],[1,0.5]];portConstraint=eastwest;whiteSpace=wrap;html=1;" vertex="1" parent="9qOrJQhXBylwTHdZU7yv-123">
          <mxGeometry y="78" width="140" height="72" as="geometry" />
        </mxCell>
        <mxCell id="9qOrJQhXBylwTHdZU7yv-127" value="Propiedad&amp;nbsp; &amp;nbsp; &amp;nbsp;&amp;nbsp;" style="swimlane;fontStyle=0;childLayout=stackLayout;horizontal=1;startSize=26;fillColor=none;horizontalStack=0;resizeParent=1;resizeParentMax=0;resizeLast=0;collapsible=1;marginBottom=0;whiteSpace=wrap;html=1;strokeColor=#990099;" vertex="1" parent="1">
          <mxGeometry x="255" y="2170" width="140" height="140" as="geometry" />
        </mxCell>
        <mxCell id="9qOrJQhXBylwTHdZU7yv-128" value="- idPropiedad&amp;nbsp; &amp;nbsp; &amp;nbsp;" style="text;strokeColor=#990099;fillColor=none;align=left;verticalAlign=top;spacingLeft=4;spacingRight=4;overflow=hidden;rotatable=0;points=[[0,0.5],[1,0.5]];portConstraint=eastwest;whiteSpace=wrap;html=1;" vertex="1" parent="9qOrJQhXBylwTHdZU7yv-127">
          <mxGeometry y="26" width="140" height="26" as="geometry" />
        </mxCell>
        <mxCell id="9qOrJQhXBylwTHdZU7yv-129" value="-&amp;nbsp;ubicacion&amp;nbsp; &amp;nbsp; &amp;nbsp; &amp;nbsp;" style="text;strokeColor=#990099;fillColor=none;align=left;verticalAlign=top;spacingLeft=4;spacingRight=4;overflow=hidden;rotatable=0;points=[[0,0.5],[1,0.5]];portConstraint=eastwest;whiteSpace=wrap;html=1;" vertex="1" parent="9qOrJQhXBylwTHdZU7yv-127">
          <mxGeometry y="52" width="140" height="26" as="geometry" />
        </mxCell>
        <mxCell id="9qOrJQhXBylwTHdZU7yv-130" value="-&amp;nbsp;tipoInmueble&amp;nbsp; &amp;nbsp;&amp;nbsp;&lt;br&gt;&lt;br&gt;-&amp;nbsp;propietario&amp;nbsp; &amp;nbsp; &amp;nbsp;" style="text;strokeColor=#990099;fillColor=none;align=left;verticalAlign=top;spacingLeft=4;spacingRight=4;overflow=hidden;rotatable=0;points=[[0,0.5],[1,0.5]];portConstraint=eastwest;whiteSpace=wrap;html=1;" vertex="1" parent="9qOrJQhXBylwTHdZU7yv-127">
          <mxGeometry y="78" width="140" height="62" as="geometry" />
        </mxCell>
        <mxCell id="9qOrJQhXBylwTHdZU7yv-134" value="" style="endArrow=none;html=1;edgeStyle=orthogonalEdgeStyle;rounded=0;exitX=1.007;exitY=0.077;exitDx=0;exitDy=0;exitPerimeter=0;entryX=0;entryY=0.5;entryDx=0;entryDy=0;strokeColor=#990099;" edge="1" parent="1" source="9qOrJQhXBylwTHdZU7yv-115" target="9qOrJQhXBylwTHdZU7yv-120">
          <mxGeometry relative="1" as="geometry">
            <mxPoint x="390" y="2210" as="sourcePoint" />
            <mxPoint x="550" y="2210" as="targetPoint" />
          </mxGeometry>
        </mxCell>
        <mxCell id="9qOrJQhXBylwTHdZU7yv-135" value="parent" style="edgeLabel;resizable=0;html=1;align=left;verticalAlign=bottom;strokeColor=#990099;" connectable="0" vertex="1" parent="9qOrJQhXBylwTHdZU7yv-134">
          <mxGeometry x="-1" relative="1" as="geometry" />
        </mxCell>
        <mxCell id="9qOrJQhXBylwTHdZU7yv-136" value="child" style="edgeLabel;resizable=0;html=1;align=right;verticalAlign=bottom;strokeColor=#990099;" connectable="0" vertex="1" parent="9qOrJQhXBylwTHdZU7yv-134">
          <mxGeometry x="1" relative="1" as="geometry" />
        </mxCell>
        <mxCell id="9qOrJQhXBylwTHdZU7yv-138" value="" style="endArrow=none;html=1;edgeStyle=orthogonalEdgeStyle;rounded=0;exitX=1;exitY=0.5;exitDx=0;exitDy=0;entryX=0;entryY=0.5;entryDx=0;entryDy=0;strokeColor=#990099;" edge="1" parent="1" source="9qOrJQhXBylwTHdZU7yv-120" target="9qOrJQhXBylwTHdZU7yv-124">
          <mxGeometry relative="1" as="geometry">
            <mxPoint x="251" y="2078" as="sourcePoint" />
            <mxPoint x="345" y="2109" as="targetPoint" />
            <Array as="points">
              <mxPoint x="510" y="2099" />
              <mxPoint x="540" y="2099" />
              <mxPoint x="540" y="2089" />
            </Array>
          </mxGeometry>
        </mxCell>
        <mxCell id="9qOrJQhXBylwTHdZU7yv-139" value="parent" style="edgeLabel;resizable=0;html=1;align=left;verticalAlign=bottom;strokeColor=#990099;" connectable="0" vertex="1" parent="9qOrJQhXBylwTHdZU7yv-138">
          <mxGeometry x="-1" relative="1" as="geometry" />
        </mxCell>
        <mxCell id="9qOrJQhXBylwTHdZU7yv-140" value="child" style="edgeLabel;resizable=0;html=1;align=right;verticalAlign=bottom;strokeColor=#990099;" connectable="0" vertex="1" parent="9qOrJQhXBylwTHdZU7yv-138">
          <mxGeometry x="1" relative="1" as="geometry" />
        </mxCell>
        <mxCell id="9qOrJQhXBylwTHdZU7yv-141" value="" style="endArrow=none;html=1;edgeStyle=orthogonalEdgeStyle;rounded=0;exitX=-0.043;exitY=1.014;exitDx=0;exitDy=0;exitPerimeter=0;entryX=0.5;entryY=0;entryDx=0;entryDy=0;strokeColor=#990099;" edge="1" parent="1" source="9qOrJQhXBylwTHdZU7yv-126" target="9qOrJQhXBylwTHdZU7yv-127">
          <mxGeometry relative="1" as="geometry">
            <mxPoint x="261" y="2088" as="sourcePoint" />
            <mxPoint x="355" y="2119" as="targetPoint" />
          </mxGeometry>
        </mxCell>
        <mxCell id="9qOrJQhXBylwTHdZU7yv-142" value="parent" style="edgeLabel;resizable=0;html=1;align=left;verticalAlign=bottom;strokeColor=#990099;" connectable="0" vertex="1" parent="9qOrJQhXBylwTHdZU7yv-141">
          <mxGeometry x="-1" relative="1" as="geometry">
            <mxPoint y="19" as="offset" />
          </mxGeometry>
        </mxCell>
        <mxCell id="9qOrJQhXBylwTHdZU7yv-143" value="child" style="edgeLabel;resizable=0;html=1;align=right;verticalAlign=bottom;strokeColor=#990099;" connectable="0" vertex="1" parent="9qOrJQhXBylwTHdZU7yv-141">
          <mxGeometry x="1" relative="1" as="geometry" />
        </mxCell>
        <mxCell id="9qOrJQhXBylwTHdZU7yv-144" value="Inmobiliaria&amp;nbsp; &amp;nbsp;" style="rounded=1;whiteSpace=wrap;html=1;strokeColor=#990099;" vertex="1" parent="1">
          <mxGeometry x="383" y="2460" width="120" height="60" as="geometry" />
        </mxCell>
        <mxCell id="9qOrJQhXBylwTHdZU7yv-145" value="Propiedad" style="rounded=1;whiteSpace=wrap;html=1;strokeColor=#990099;" vertex="1" parent="1">
          <mxGeometry x="383" y="2320" width="120" height="60" as="geometry" />
        </mxCell>
        <mxCell id="9qOrJQhXBylwTHdZU7yv-146" value="cliente" style="rounded=1;whiteSpace=wrap;html=1;strokeColor=#990099;" vertex="1" parent="1">
          <mxGeometry x="399" y="2680" width="120" height="60" as="geometry" />
        </mxCell>
        <mxCell id="9qOrJQhXBylwTHdZU7yv-147" value="1" style="endArrow=open;html=1;endSize=12;startArrow=diamondThin;startSize=14;startFill=0;edgeStyle=orthogonalEdgeStyle;align=left;verticalAlign=bottom;rounded=0;entryX=0.5;entryY=1;entryDx=0;entryDy=0;exitX=0.5;exitY=0;exitDx=0;exitDy=0;strokeColor=#990099;" edge="1" parent="1" source="9qOrJQhXBylwTHdZU7yv-144" target="9qOrJQhXBylwTHdZU7yv-145">
          <mxGeometry x="-1" y="10" relative="1" as="geometry">
            <mxPoint x="459" y="2450" as="sourcePoint" />
            <mxPoint x="409" y="2500" as="targetPoint" />
            <mxPoint as="offset" />
          </mxGeometry>
        </mxCell>
        <mxCell id="9qOrJQhXBylwTHdZU7yv-148" value="1" style="endArrow=open;html=1;endSize=12;startArrow=diamondThin;startSize=14;startFill=0;edgeStyle=orthogonalEdgeStyle;align=left;verticalAlign=bottom;rounded=0;exitX=0.5;exitY=1;exitDx=0;exitDy=0;entryX=0.5;entryY=0;entryDx=0;entryDy=0;strokeColor=#990099;" edge="1" parent="1" source="9qOrJQhXBylwTHdZU7yv-144" target="9qOrJQhXBylwTHdZU7yv-146">
          <mxGeometry x="-1" y="3" relative="1" as="geometry">
            <mxPoint x="309" y="2525" as="sourcePoint" />
            <mxPoint x="459" y="2610" as="targetPoint" />
          </mxGeometry>
        </mxCell>
        <mxCell id="9qOrJQhXBylwTHdZU7yv-149" value="1" style="endArrow=open;html=1;endSize=12;startArrow=diamondThin;startSize=14;startFill=0;edgeStyle=orthogonalEdgeStyle;align=left;verticalAlign=bottom;rounded=0;exitX=1.008;exitY=0.617;exitDx=0;exitDy=0;exitPerimeter=0;strokeColor=#990099;" edge="1" parent="1" source="9qOrJQhXBylwTHdZU7yv-144">
          <mxGeometry x="-1" y="3" relative="1" as="geometry">
            <mxPoint x="440" y="2515" as="sourcePoint" />
            <mxPoint x="640" y="2490" as="targetPoint" />
          </mxGeometry>
        </mxCell>
        <mxCell id="9qOrJQhXBylwTHdZU7yv-150" value="&lt;span style=&quot;font-size: 11px; background-color: rgb(255, 255, 255);&quot;&gt;2&lt;/span&gt;" style="text;whiteSpace=wrap;html=1;strokeColor=#990099;" vertex="1" parent="1">
          <mxGeometry x="299" y="2450" width="11" height="20" as="geometry" />
        </mxCell>
        <mxCell id="9qOrJQhXBylwTHdZU7yv-151" value="&lt;span style=&quot;color: rgb(0, 0, 0); font-family: Helvetica; font-size: 11px; font-style: normal; font-variant-ligatures: normal; font-variant-caps: normal; font-weight: 400; letter-spacing: normal; orphans: 2; text-align: left; text-indent: 0px; text-transform: none; widows: 2; word-spacing: 0px; -webkit-text-stroke-width: 0px; background-color: rgb(255, 255, 255); text-decoration-thickness: initial; text-decoration-style: initial; text-decoration-color: initial; float: none; display: inline !important;&quot;&gt;2&lt;/span&gt;" style="text;whiteSpace=wrap;html=1;strokeColor=#990099;" vertex="1" parent="1">
          <mxGeometry x="459" y="2380" width="11" height="20" as="geometry" />
        </mxCell>
        <mxCell id="9qOrJQhXBylwTHdZU7yv-152" value="1" style="endArrow=open;html=1;endSize=12;startArrow=diamondThin;startSize=14;startFill=0;edgeStyle=orthogonalEdgeStyle;align=left;verticalAlign=bottom;rounded=0;entryX=1;entryY=0.5;entryDx=0;entryDy=0;exitX=0;exitY=0.5;exitDx=0;exitDy=0;strokeColor=#990099;" edge="1" parent="1" source="9qOrJQhXBylwTHdZU7yv-144">
          <mxGeometry x="-1" y="3" relative="1" as="geometry">
            <mxPoint x="379" y="2490" as="sourcePoint" />
            <mxPoint x="289" y="2490" as="targetPoint" />
          </mxGeometry>
        </mxCell>
        <mxCell id="9qOrJQhXBylwTHdZU7yv-153" value="&lt;span style=&quot;font-size: 11px; background-color: rgb(255, 255, 255);&quot;&gt;2&lt;/span&gt;" style="text;whiteSpace=wrap;html=1;strokeColor=#990099;" vertex="1" parent="1">
          <mxGeometry x="469" y="2630" width="20" height="30" as="geometry" />
        </mxCell>
        <mxCell id="9qOrJQhXBylwTHdZU7yv-154" value="&lt;span style=&quot;font-size: 11px; background-color: rgb(255, 255, 255);&quot;&gt;2&lt;/span&gt;" style="text;whiteSpace=wrap;html=1;strokeColor=#990099;" vertex="1" parent="1">
          <mxGeometry x="620" y="2500" width="20" height="30" as="geometry" />
        </mxCell>
        <mxCell id="9qOrJQhXBylwTHdZU7yv-155" value="empleado" style="rounded=1;whiteSpace=wrap;html=1;strokeColor=#990099;" vertex="1" parent="1">
          <mxGeometry x="170" y="2460" width="120" height="60" as="geometry" />
        </mxCell>
        <mxCell id="9qOrJQhXBylwTHdZU7yv-156" value="idInmobiliaria&amp;nbsp; &amp;nbsp;" style="rounded=1;whiteSpace=wrap;html=1;strokeColor=#990099;" vertex="1" parent="1">
          <mxGeometry x="640" y="2450" width="120" height="80" as="geometry" />
        </mxCell>
        <mxCell id="9qOrJQhXBylwTHdZU7yv-158" value="DIAGRAMA DE AGREGACION" style="text;html=1;align=center;verticalAlign=middle;resizable=0;points=[];autosize=1;strokeColor=none;fillColor=none;" vertex="1" parent="1">
          <mxGeometry x="75" y="2558" width="190" height="30" as="geometry" />
        </mxCell>
      </root>
    </mxGraphModel>
  </diagram>
</mxfile>
